<svg width="187" height="48" viewBox="0 0 187 48" fill="none" xmlns="http://www.w3.org/2000/svg">
<path d="M173.963 23.3921C178.089 20.2304 179.908 16.9356 179.614 12.7012C179.446 9.8828 178.198 7.23779 176.129 5.31647C174.06 3.39514 171.33 2.34548 168.507 2.38589H152.197V38.0733H158.681V23.3912H166.344L175.51 38.0733H183.165L173.963 23.3921ZM173.324 12.7269C173.324 15.4579 171.401 17.0697 168.475 17.0697H158.675V8.69711H168.475C172.171 8.69711 173.324 11.2476 173.324 12.7269Z" fill="#1A1A1A"/>
<path d="M102.801 24.7382L111.166 38.0621L118.882 38.0724L106.998 19.1731L102.801 24.7382Z" fill="#1A1A1A"/>
<path d="M116.524 2.38675H108.288L91.3242 24.9385V2.38675H84.8041V34.9125C84.7984 35.6478 85.0517 36.3616 85.5196 36.9289C85.9875 37.4961 86.6402 37.8806 87.3632 38.0148C87.9396 38.1167 88.5328 38.0612 89.0804 37.8541C89.6279 37.647 90.1094 37.2959 90.474 36.838L116.52 2.38675" fill="#1A1A1A"/>
<path d="M143.776 17.0688H130.966V23.3912H143.776V17.0688Z" fill="#1A1A1A"/>
<path d="M147.073 2.38675H121.649V34.9013C121.648 35.3179 121.73 35.7305 121.89 36.1154C122.049 36.5004 122.283 36.8501 122.577 37.1448C122.872 37.4394 123.222 37.6731 123.606 37.8326C123.991 37.992 124.404 38.0741 124.82 38.0741H147.073V31.7681H128.15V8.70657H147.073V2.38675Z" fill="#1A1A1A"/>
<path d="M71.7802 2.38675V24.9385L54.8168 2.38675H46.5345V38.0604H53.0374V10.9304C60.7291 21.1029 72.5504 36.7417 72.6287 36.838C72.9929 37.296 73.474 37.6471 74.0213 37.8543C74.5686 38.0614 75.1617 38.1169 75.7379 38.0148C76.4608 37.8806 77.1135 37.4961 77.5814 36.9289C78.0493 36.3616 78.3026 35.6478 78.2969 34.9125V2.38675H71.7802Z" fill="#1A1A1A"/>
<path d="M20.0105 4.30968L3.32642 38.0741H10.5961L23.1592 12.7269L35.7206 38.0741H42.9267L26.3656 4.42315C26.0654 3.81287 25.6003 3.29887 25.023 2.9394C24.4457 2.57993 23.7792 2.38937 23.0991 2.38933C22.4561 2.38963 21.826 2.5699 21.2802 2.90974C20.7343 3.24958 20.2945 3.73541 20.0105 4.31227" fill="#1A1A1A"/>
<path d="M29.0544 33.0257H24.7564C24.7466 33.0257 24.737 33.0237 24.728 33.0198C24.7191 33.0159 24.7111 33.0101 24.7045 33.0029C24.698 32.9957 24.693 32.9872 24.6899 32.9779C24.6869 32.9687 24.6858 32.9589 24.6867 32.9491L25.5232 23.778C25.525 23.7629 25.5218 23.7476 25.514 23.7345C25.5063 23.7214 25.4944 23.7112 25.4802 23.7056C25.466 23.7 25.4504 23.6993 25.4358 23.7035C25.4212 23.7078 25.4084 23.7167 25.3994 23.729L16.1432 35.8331C16.1353 35.8434 16.1305 35.8557 16.1293 35.8686C16.128 35.8814 16.1304 35.8944 16.1361 35.906C16.1418 35.9176 16.1507 35.9274 16.1616 35.9342C16.1726 35.9411 16.1852 35.9448 16.1981 35.9449H20.4962C20.5059 35.945 20.5155 35.947 20.5243 35.951C20.5332 35.955 20.5412 35.9607 20.5477 35.9679C20.5542 35.9751 20.5592 35.9836 20.5623 35.9928C20.5654 36.002 20.5666 36.0117 20.5658 36.0214L19.7277 45.1934C19.7266 45.2084 19.7303 45.2234 19.7384 45.2361C19.7464 45.2489 19.7583 45.2587 19.7724 45.2642C19.7864 45.2697 19.8018 45.2705 19.8164 45.2666C19.8309 45.2627 19.8438 45.2542 19.8532 45.2424L29.1094 33.134C29.1175 33.1237 29.1225 33.1113 29.1239 33.0983C29.1253 33.0853 29.1229 33.0722 29.1172 33.0604C29.1115 33.0487 29.1025 33.0388 29.0914 33.0319C29.0803 33.0249 29.0675 33.0213 29.0544 33.0214" fill="#1A1A1A"/>
</svg>
