<svg xmlns="http://www.w3.org/2000/svg" fill="none" viewBox="0 0 230 63" height="63" width="230">
<path fill="#00A9E0" d="M217.623 35.1955C222.867 31.1776 225.179 26.9904 224.805 21.6091C224.591 18.0275 223.005 14.6661 220.376 12.2244C217.747 9.78276 214.278 8.44881 210.69 8.50016H189.962V53.8529H198.203V35.1944H207.94L219.589 53.8529H229.318L217.623 35.1955ZM216.811 21.6419C216.811 25.1125 214.367 27.1608 210.648 27.1608H198.195V16.5207H210.648C215.346 16.5207 216.811 19.7619 216.811 21.6419Z"></path>
<path fill="#00A9E0" d="M127.188 36.9062L137.818 53.8386L147.625 53.8518L132.522 29.8339L127.188 36.9062Z"></path>
<path fill="#00A9E0" d="M144.627 8.50125H134.162L112.603 37.1608V8.50125H104.317V49.836C104.31 50.7705 104.632 51.6777 105.226 52.3985C105.821 53.1194 106.65 53.608 107.569 53.7786C108.302 53.9081 109.056 53.8375 109.752 53.5743C110.447 53.3111 111.059 52.865 111.523 52.2831L144.623 8.50125"></path>
<path fill="#00A9E0" d="M179.26 27.1597H162.981V35.1944H179.26V27.1597Z"></path>
<path fill="#00A9E0" d="M183.451 8.50125H151.14V49.8218C151.14 50.3513 151.244 50.8756 151.447 51.3648C151.649 51.854 151.946 52.2985 152.32 52.6729C152.695 53.0473 153.139 53.3444 153.628 53.547C154.118 53.7496 154.642 53.854 155.171 53.854H183.451V45.84H159.402V16.5327H183.451V8.50125Z"></path>
<path fill="#00A9E0" d="M87.766 8.50125V37.1608L66.2083 8.50125H55.6829V53.8365H63.947V19.3588C73.7219 32.2864 88.7448 52.1607 88.8442 52.2831C89.3071 52.8651 89.9185 53.3113 90.614 53.5746C91.3095 53.8378 92.0632 53.9083 92.7955 53.7786C93.7143 53.608 94.5436 53.1194 95.1383 52.3985C95.7329 51.6777 96.0548 50.7705 96.0476 49.836V8.50125H87.766Z"></path>
<path fill="#00A9E0" d="M21.9753 10.945L0.772583 53.854H10.0112L25.9768 21.6419L41.9402 53.854H51.0979L30.0515 11.0892C29.6701 10.3136 29.079 9.6604 28.3453 9.20358C27.6116 8.74675 26.7646 8.50459 25.9003 8.50453C25.0832 8.50491 24.2825 8.73401 23.5888 9.16589C22.8951 9.59777 22.3362 10.2152 21.9753 10.9483"></path>
<path fill="#00A9E0" d="M33.4686 47.4382H28.0065C27.9941 47.4383 27.9818 47.4357 27.9705 47.4307C27.9592 47.4257 27.949 47.4184 27.9406 47.4093C27.9323 47.4001 27.926 47.3893 27.9221 47.3775C27.9182 47.3658 27.9168 47.3533 27.918 47.341L28.981 35.686C28.9833 35.6668 28.9792 35.6473 28.9694 35.6307C28.9595 35.614 28.9444 35.6011 28.9264 35.594C28.9084 35.5869 28.8886 35.5859 28.87 35.5913C28.8514 35.5967 28.8351 35.6081 28.8237 35.6237L17.0606 51.006C17.0506 51.0191 17.0445 51.0347 17.0429 51.0511C17.0413 51.0674 17.0444 51.0839 17.0516 51.0986C17.0589 51.1134 17.0701 51.1258 17.084 51.1345C17.098 51.1433 17.114 51.1479 17.1304 51.148H22.5925C22.6048 51.1481 22.617 51.1508 22.6283 51.1558C22.6396 51.1609 22.6497 51.1682 22.658 51.1773C22.6663 51.1864 22.6726 51.1972 22.6766 51.2089C22.6805 51.2206 22.682 51.233 22.681 51.2453L21.6159 62.9013C21.6145 62.9204 21.6192 62.9395 21.6294 62.9557C21.6397 62.9719 21.6548 62.9844 21.6726 62.9913C21.6905 62.9983 21.7101 62.9994 21.7286 62.9944C21.7471 62.9894 21.7635 62.9786 21.7754 62.9636L33.5385 47.5758C33.5488 47.5628 33.5552 47.5471 33.5569 47.5305C33.5587 47.514 33.5557 47.4973 33.5484 47.4824C33.5411 47.4674 33.5298 47.4549 33.5157 47.4461C33.5015 47.4373 33.4852 47.4327 33.4686 47.4327"></path>
</svg>
