<svg width="427" height="55" viewBox="0 0 427 55" fill="none" xmlns="http://www.w3.org/2000/svg">
<path d="M13.104 42.192L8.784 53.136H0L20.304 2.736H28.08L48.888 53.136H39.96L35.568 42.192H13.104ZM32.688 34.776L24.264 13.536L15.984 34.776H32.688Z" fill="url(#paint0_linear_1505_3118)"/>
<path d="M76.1799 13.392C79.1559 13.392 81.7479 14.088 83.9559 15.48C86.2119 16.872 87.9399 18.816 89.1399 21.312C90.3399 23.76 90.9399 26.568 90.9399 29.736V53.136H82.9479V31.32C82.9479 27.816 82.1799 25.152 80.6439 23.328C79.1559 21.456 76.9479 20.52 74.0199 20.52C70.9479 20.52 68.4279 21.624 66.4599 23.832C64.5399 26.04 63.5799 28.872 63.5799 32.328V53.136H55.5879V14.256H61.1319L62.7159 19.656C64.2039 17.688 66.0999 16.152 68.4039 15.048C70.7559 13.944 73.3479 13.392 76.1799 13.392Z" fill="url(#paint1_linear_1505_3118)"/>
<path d="M109.775 0.288001V53.136H101.783V0.288001H109.775ZM125.183 53.136L110.135 33.336V32.616L124.247 14.256H133.823L119.135 32.904L135.119 53.136H125.183Z" fill="url(#paint2_linear_1505_3118)"/>
<path d="M176.126 33.768C176.126 34.392 176.078 35.28 175.982 36.432H144.445C144.925 39.552 146.221 42.024 148.333 43.848C150.445 45.672 153.11 46.584 156.326 46.584C158.63 46.584 160.694 46.08 162.518 45.072C164.342 44.064 165.758 42.672 166.766 40.896H175.189C173.653 44.976 171.206 48.192 167.846 50.544C164.486 52.896 160.646 54.072 156.326 54.072C152.582 54.072 149.174 53.184 146.102 51.408C143.078 49.632 140.678 47.184 138.902 44.064C137.174 40.944 136.309 37.488 136.309 33.696C136.309 29.856 137.174 26.4 138.902 23.328C140.678 20.208 143.078 17.76 146.102 15.984C149.174 14.208 152.582 13.32 156.326 13.32C160.214 13.32 163.646 14.232 166.622 16.056C169.646 17.88 171.973 20.352 173.605 23.472C175.285 26.592 176.126 30.024 176.126 33.768ZM156.326 20.52C153.302 20.52 150.757 21.36 148.693 23.04C146.629 24.72 145.262 27.024 144.59 29.952H168.133C167.413 27.024 165.997 24.72 163.885 23.04C161.821 21.36 159.302 20.52 156.326 20.52Z" fill="url(#paint3_linear_1505_3118)"/>
<path d="M206.715 21.6H202.539C199.227 21.6 196.731 22.512 195.051 24.336C193.419 26.16 192.603 28.848 192.603 32.4V53.136H184.611V14.256H190.011L191.379 19.584C192.771 17.712 194.427 16.32 196.347 15.408C198.315 14.496 200.619 14.04 203.259 14.04H206.715V21.6Z" fill="url(#paint4_linear_1505_3118)"/>
<path d="M248.487 2.736C251.703 2.736 254.607 3.456 257.199 4.896C259.839 6.336 261.903 8.328 263.391 10.872C264.879 13.416 265.623 16.248 265.623 19.368C265.623 22.488 264.879 25.32 263.391 27.864C261.903 30.408 259.839 32.4 257.199 33.84C254.607 35.28 251.703 36 248.487 36H238.119V53.136H229.839V2.736H248.487ZM248.055 28.152C250.743 28.152 252.951 27.336 254.679 25.704C256.407 24.024 257.271 21.912 257.271 19.368C257.271 16.824 256.407 14.736 254.679 13.104C252.951 11.424 250.743 10.584 248.055 10.584H238.119V28.152H248.055Z" fill="url(#paint5_linear_1505_3118)"/>
<path d="M295.52 21.6H291.344C288.032 21.6 285.536 22.512 283.856 24.336C282.224 26.16 281.408 28.848 281.408 32.4V53.136H273.416V14.256H278.816L280.184 19.584C281.576 17.712 283.232 16.32 285.152 15.408C287.12 14.496 289.424 14.04 292.064 14.04H295.52V21.6Z" fill="url(#paint6_linear_1505_3118)"/>
<path d="M309.888 0V8.208H301.608V0H309.888ZM309.744 14.256V53.136H301.752V14.256H309.744Z" fill="url(#paint7_linear_1505_3118)"/>
<path d="M364.576 13.392C367.264 13.392 369.64 14.04 371.704 15.336C373.816 16.584 375.448 18.36 376.6 20.664C377.752 22.92 378.328 25.512 378.328 28.44V53.136H370.336V30.384C370.336 27.264 369.664 24.84 368.32 23.112C367.024 21.384 365.176 20.52 362.776 20.52C361.048 20.52 359.488 21.024 358.096 22.032C356.704 22.992 355.6 24.336 354.784 26.064C354.016 27.792 353.632 29.736 353.632 31.896V53.136H345.784V30.384C345.784 27.216 345.136 24.792 343.84 23.112C342.544 21.384 340.672 20.52 338.224 20.52C336.496 20.52 334.936 21.024 333.544 22.032C332.152 22.992 331.048 24.336 330.232 26.064C329.464 27.792 329.08 29.736 329.08 31.896V53.136H321.088V14.256H326.776L328.144 19.296C329.584 17.472 331.36 16.032 333.472 14.976C335.632 13.92 337.888 13.392 340.24 13.392C342.832 13.392 345.136 13.992 347.152 15.192C349.168 16.392 350.752 18.048 351.904 20.16C353.296 18.048 355.12 16.392 357.376 15.192C359.632 13.992 362.032 13.392 364.576 13.392Z" fill="url(#paint8_linear_1505_3118)"/>
<path d="M426.086 33.768C426.086 34.392 426.038 35.28 425.942 36.432H394.406C394.886 39.552 396.182 42.024 398.294 43.848C400.406 45.672 403.07 46.584 406.286 46.584C408.59 46.584 410.654 46.08 412.478 45.072C414.302 44.064 415.718 42.672 416.726 40.896H425.15C423.614 44.976 421.166 48.192 417.806 50.544C414.446 52.896 410.606 54.072 406.286 54.072C402.542 54.072 399.134 53.184 396.062 51.408C393.038 49.632 390.638 47.184 388.862 44.064C387.134 40.944 386.27 37.488 386.27 33.696C386.27 29.856 387.134 26.4 388.862 23.328C390.638 20.208 393.038 17.76 396.062 15.984C399.134 14.208 402.542 13.32 406.286 13.32C410.174 13.32 413.606 14.232 416.582 16.056C419.606 17.88 421.934 20.352 423.566 23.472C425.246 26.592 426.086 30.024 426.086 33.768ZM406.286 20.52C403.262 20.52 400.718 21.36 398.654 23.04C396.59 24.72 395.222 27.024 394.55 29.952H418.094C417.374 27.024 415.958 24.72 413.846 23.04C411.782 21.36 409.262 20.52 406.286 20.52Z" fill="url(#paint9_linear_1505_3118)"/>
<defs>
<linearGradient id="paint0_linear_1505_3118" x1="152.398" y1="-12.3789" x2="231.398" y2="124.453" gradientUnits="userSpaceOnUse">
<stop offset="0.00961538" stop-color="#7F8CA3"/>
<stop offset="0.432293" stop-color="#DCF3FF"/>
<stop offset="1" stop-color="#4D5460"/>
</linearGradient>
<linearGradient id="paint1_linear_1505_3118" x1="152.398" y1="-12.3789" x2="231.398" y2="124.453" gradientUnits="userSpaceOnUse">
<stop offset="0.00961538" stop-color="#7F8CA3"/>
<stop offset="0.432293" stop-color="#DCF3FF"/>
<stop offset="1" stop-color="#4D5460"/>
</linearGradient>
<linearGradient id="paint2_linear_1505_3118" x1="152.398" y1="-12.3789" x2="231.398" y2="124.453" gradientUnits="userSpaceOnUse">
<stop offset="0.00961538" stop-color="#7F8CA3"/>
<stop offset="0.432293" stop-color="#DCF3FF"/>
<stop offset="1" stop-color="#4D5460"/>
</linearGradient>
<linearGradient id="paint3_linear_1505_3118" x1="152.398" y1="-12.3789" x2="231.398" y2="124.453" gradientUnits="userSpaceOnUse">
<stop offset="0.00961538" stop-color="#7F8CA3"/>
<stop offset="0.432293" stop-color="#DCF3FF"/>
<stop offset="1" stop-color="#4D5460"/>
</linearGradient>
<linearGradient id="paint4_linear_1505_3118" x1="152.398" y1="-12.3789" x2="231.398" y2="124.453" gradientUnits="userSpaceOnUse">
<stop offset="0.00961538" stop-color="#7F8CA3"/>
<stop offset="0.432293" stop-color="#DCF3FF"/>
<stop offset="1" stop-color="#4D5460"/>
</linearGradient>
<linearGradient id="paint5_linear_1505_3118" x1="152.398" y1="-12.3789" x2="231.398" y2="124.453" gradientUnits="userSpaceOnUse">
<stop offset="0.00961538" stop-color="#7F8CA3"/>
<stop offset="0.432293" stop-color="#DCF3FF"/>
<stop offset="1" stop-color="#4D5460"/>
</linearGradient>
<linearGradient id="paint6_linear_1505_3118" x1="152.398" y1="-12.3789" x2="231.398" y2="124.453" gradientUnits="userSpaceOnUse">
<stop offset="0.00961538" stop-color="#7F8CA3"/>
<stop offset="0.432293" stop-color="#DCF3FF"/>
<stop offset="1" stop-color="#4D5460"/>
</linearGradient>
<linearGradient id="paint7_linear_1505_3118" x1="152.398" y1="-12.3789" x2="231.398" y2="124.453" gradientUnits="userSpaceOnUse">
<stop offset="0.00961538" stop-color="#7F8CA3"/>
<stop offset="0.432293" stop-color="#DCF3FF"/>
<stop offset="1" stop-color="#4D5460"/>
</linearGradient>
<linearGradient id="paint8_linear_1505_3118" x1="152.398" y1="-12.3789" x2="231.398" y2="124.453" gradientUnits="userSpaceOnUse">
<stop offset="0.00961538" stop-color="#7F8CA3"/>
<stop offset="0.432293" stop-color="#DCF3FF"/>
<stop offset="1" stop-color="#4D5460"/>
</linearGradient>
<linearGradient id="paint9_linear_1505_3118" x1="152.398" y1="-12.3789" x2="231.398" y2="124.453" gradientUnits="userSpaceOnUse">
<stop offset="0.00961538" stop-color="#7F8CA3"/>
<stop offset="0.432293" stop-color="#DCF3FF"/>
<stop offset="1" stop-color="#4D5460"/>
</linearGradient>
</defs>
</svg>
